# xmcd
#
# Track frame offsets:
#	150
#	14657
#	29797
#	46237
#	58670
#	70562
#	87835
#	99952
#	113492
#	126715
#	146462
#	160595
#	174782
#	186105
#	202747
#	216312
#
# Disc length: 3099 seconds
#
# Revision: 1
# Processed by: cddbd v1.5.2PL0 Copyright (c) Steve Scherf et al.
# Submitted via: audiograbber 1.83.01
#
DISCID=d60c1910
DTITLE=Varios - 30 Años en pura Marimba
DYEAR=1900
DGENRE=Latin
TTITLE0=Marimba Hurtado Hermanos - Luna de Xekaju
TTITLE1=Marimba Antigua - Lagrimas de Thelma
TTITLE2=Marimba Chapinlandia - Rio Polochic
TTITLE3=Marimba Ideal - El Tiempo todo la Borra
TTITLE4=Marimba Kaibil Malam - Me Pican las Manos
TTITLE5=Marimba Melgar - Quien te quiere como yo
TTITLE6=Marimba Sonora Quetzal - Las Chancletas de Nayo Capero
TTITLE7=Marimba Chapinlandia - Añoranza
TTITLE8=Marimba Ideal - Coban
TTITLE9=Marimba Sonora Quetzal - Mi Lupita
TTITLE10=Marimba Antigua - Luna de Miel en Rio Dulce
TTITLE11=Jardin Mazateco - Jardin Mazateco
TTITLE12=Marimba Kaibil Malam - Celajes Tacanecos
TTITLE13=Marimba Hurtado Hermanos - Ferrocarril de los Altos
TTITLE14=Marimba Sonora Quetzal - Bellas Ilusiones
TTITLE15=Marimba Antigua - Panograma de mi Tierra
EXTD=
EXTT0=
EXTT1=
EXTT2=
EXTT3=
EXTT4=
EXTT5=
EXTT6=
EXTT7=
EXTT8=
EXTT9=
EXTT10=
EXTT11=
EXTT12=
EXTT13=
EXTT14=
EXTT15=
PLAYORDER=
